<?xml version="1.0" encoding="UTF-8"?>
<svg width="788" height="546" xmlns="http://www.w3.org/2000/svg">
<style>
.node-unvisited { fill: white; stroke: black; stroke-width: 2; }
.node-visited { fill: lightblue; stroke: black; stroke-width: 2; }
.node-queued { fill: orange; stroke: black; stroke-width: 2; }
.node-current { fill: yellow; stroke: black; stroke-width: 3; }
.node-path { fill: lightgreen; stroke: black; stroke-width: 2; }
.edge { stroke: gray; stroke-width: 1; }
.edge-path { stroke: red; stroke-width: 3; }
.text { font-family: Arial; font-size: 12px; text-anchor: middle; }
.weight-text { font-family: Arial; font-size: 10px; text-anchor: middle; fill: blue; }
.distance-text { font-family: Arial; font-size: 8px; text-anchor: middle; fill: red; font-weight: bold; }
</style>
<line x1="150" y1="139" x2="280" y2="86" class="edge"/>
<text x="215" y="112" class="weight-text">140</text>
<line x1="150" y1="139" x2="58" y2="246" class="edge"/>
<text x="104" y="192" class="weight-text">141</text>
<line x1="150" y1="139" x2="50" y2="50" class="edge"/>
<text x="100" y="94" class="weight-text">133</text>
<line x1="280" y1="86" x2="378" y2="174" class="edge"/>
<text x="329" y="130" class="weight-text">131</text>
<line x1="280" y1="86" x2="202" y2="176" class="edge"/>
<text x="241" y="131" class="weight-text">119</text>
<line x1="378" y1="174" x2="479" y2="145" class="edge"/>
<text x="428" y="159" class="weight-text">105</text>
<line x1="378" y1="174" x2="318" y2="238" class="edge"/>
<text x="348" y="206" class="weight-text">87</text>
<line x1="479" y1="145" x2="539" y2="134" class="edge"/>
<text x="509" y="139" class="weight-text">61</text>
<line x1="479" y1="145" x2="434" y2="272" class="edge"/>
<text x="456" y="208" class="weight-text">134</text>
<line x1="539" y1="134" x2="672" y2="106" class="edge"/>
<text x="605" y="120" class="weight-text">135</text>
<line x1="539" y1="134" x2="535" y2="285" class="edge"/>
<text x="537" y="209" class="weight-text">151</text>
<line x1="672" y1="106" x2="742" y2="235" class="edge"/>
<text x="707" y="170" class="weight-text">146</text>
<line x1="58" y1="246" x2="202" y2="176" class="edge"/>
<text x="130" y="211" class="weight-text">160</text>
<line x1="58" y1="246" x2="73" y2="319" class="edge"/>
<text x="65" y="282" class="weight-text">74</text>
<line x1="202" y1="176" x2="318" y2="238" class="edge"/>
<text x="260" y="207" class="weight-text">131</text>
<line x1="202" y1="176" x2="189" y2="404" class="edge"/>
<text x="195" y="290" class="weight-text">228</text>
<line x1="318" y1="238" x2="434" y2="272" class="edge"/>
<text x="376" y="255" class="weight-text">120</text>
<line x1="318" y1="238" x2="390" y2="382" class="edge"/>
<text x="354" y="310" class="weight-text">160</text>
<line x1="434" y1="272" x2="535" y2="285" class="edge"/>
<text x="484" y="278" class="weight-text">101</text>
<line x1="434" y1="272" x2="436" y2="412" class="edge"/>
<text x="435" y="342" class="weight-text">140</text>
<line x1="535" y1="285" x2="742" y2="235" class="edge"/>
<text x="638" y="260" class="weight-text">212</text>
<line x1="535" y1="285" x2="576" y2="362" class="edge"/>
<text x="555" y="323" class="weight-text">87</text>
<line x1="742" y1="235" x2="682" y2="345" class="edge"/>
<text x="712" y="290" class="weight-text">125</text>
<line x1="742" y1="235" x2="381" y2="416" class="edge"/>
<text x="561" y="325" class="weight-text">403</text>
<line x1="73" y1="319" x2="189" y2="404" class="edge"/>
<text x="131" y="361" class="weight-text">143</text>
<line x1="73" y1="319" x2="102" y2="490" class="edge"/>
<text x="87" y="404" class="weight-text">173</text>
<line x1="189" y1="404" x2="390" y2="382" class="edge"/>
<text x="289" y="393" class="weight-text">202</text>
<line x1="189" y1="404" x2="175" y2="512" class="edge"/>
<text x="182" y="458" class="weight-text">108</text>
<line x1="390" y1="382" x2="436" y2="412" class="edge"/>
<text x="413" y="397" class="weight-text">54</text>
<line x1="390" y1="382" x2="381" y2="416" class="edge"/>
<text x="385" y="399" class="weight-text">35</text>
<line x1="436" y1="412" x2="576" y2="362" class="edge"/>
<text x="506" y="387" class="weight-text">148</text>
<line x1="436" y1="412" x2="497" y2="526" class="edge"/>
<text x="466" y="469" class="weight-text">129</text>
<line x1="576" y1="362" x2="682" y2="345" class="edge"/>
<text x="629" y="353" class="weight-text">107</text>
<line x1="576" y1="362" x2="641" y2="513" class="edge"/>
<text x="608" y="437" class="weight-text">164</text>
<line x1="682" y1="345" x2="768" y2="477" class="edge"/>
<text x="725" y="411" class="weight-text">157</text>
<line x1="102" y1="490" x2="175" y2="512" class="edge"/>
<text x="138" y="501" class="weight-text">76</text>
<line x1="102" y1="490" x2="381" y2="416" class="edge"/>
<text x="241" y="453" class="weight-text">288</text>
<line x1="175" y1="512" x2="381" y2="416" class="edge"/>
<text x="278" y="464" class="weight-text">227</text>
<line x1="381" y1="416" x2="497" y2="526" class="edge"/>
<text x="439" y="471" class="weight-text">159</text>
<line x1="497" y1="526" x2="641" y2="513" class="edge"/>
<text x="569" y="519" class="weight-text">144</text>
<line x1="641" y1="513" x2="768" y2="477" class="edge"/>
<text x="704" y="495" class="weight-text">132</text>
<line x1="768" y1="477" x2="50" y2="50" class="edge"/>
<text x="409" y="263" class="weight-text">835</text>
<circle cx="150" cy="139" r="15" class="node-current"/>
<text x="150" y="143" class="text">0</text>
<circle cx="280" cy="86" r="15" class="node-unvisited"/>
<text x="280" y="90" class="text">1</text>
<circle cx="378" cy="174" r="15" class="node-unvisited"/>
<text x="378" y="178" class="text">2</text>
<circle cx="479" cy="145" r="15" class="node-unvisited"/>
<text x="479" y="149" class="text">3</text>
<circle cx="539" cy="134" r="15" class="node-unvisited"/>
<text x="539" y="138" class="text">4</text>
<circle cx="672" cy="106" r="15" class="node-unvisited"/>
<text x="672" y="110" class="text">5</text>
<circle cx="58" cy="246" r="15" class="node-unvisited"/>
<text x="58" y="250" class="text">6</text>
<circle cx="202" cy="176" r="15" class="node-unvisited"/>
<text x="202" y="180" class="text">7</text>
<circle cx="318" cy="238" r="15" class="node-unvisited"/>
<text x="318" y="242" class="text">8</text>
<circle cx="434" cy="272" r="15" class="node-unvisited"/>
<text x="434" y="276" class="text">9</text>
<circle cx="535" cy="285" r="15" class="node-unvisited"/>
<text x="535" y="289" class="text">10</text>
<circle cx="742" cy="235" r="15" class="node-unvisited"/>
<text x="742" y="239" class="text">11</text>
<circle cx="73" cy="319" r="15" class="node-unvisited"/>
<text x="73" y="323" class="text">12</text>
<circle cx="189" cy="404" r="15" class="node-unvisited"/>
<text x="189" y="408" class="text">13</text>
<circle cx="390" cy="382" r="15" class="node-unvisited"/>
<text x="390" y="386" class="text">14</text>
<circle cx="436" cy="412" r="15" class="node-unvisited"/>
<text x="436" y="416" class="text">15</text>
<circle cx="576" cy="362" r="15" class="node-unvisited"/>
<text x="576" y="366" class="text">16</text>
<circle cx="682" cy="345" r="15" class="node-unvisited"/>
<text x="682" y="349" class="text">17</text>
<circle cx="102" cy="490" r="15" class="node-unvisited"/>
<text x="102" y="494" class="text">18</text>
<circle cx="175" cy="512" r="15" class="node-unvisited"/>
<text x="175" y="516" class="text">19</text>
<circle cx="381" cy="416" r="15" class="node-unvisited"/>
<text x="381" y="420" class="text">20</text>
<circle cx="497" cy="526" r="15" class="node-unvisited"/>
<text x="497" y="530" class="text">21</text>
<circle cx="641" cy="513" r="15" class="node-unvisited"/>
<text x="641" y="517" class="text">22</text>
<circle cx="768" cy="477" r="15" class="node-unvisited"/>
<text x="768" y="481" class="text">23</text>
<circle cx="50" cy="50" r="15" class="node-unvisited"/>
<text x="50" y="54" class="text">24</text>
</svg>
