<?xml version="1.0" encoding="UTF-8"?>
<svg width="794" height="554" xmlns="http://www.w3.org/2000/svg">
<style>
.node-unvisited { fill: white; stroke: black; stroke-width: 2; }
.node-visited { fill: lightblue; stroke: black; stroke-width: 2; }
.node-queued { fill: orange; stroke: black; stroke-width: 2; }
.node-current { fill: yellow; stroke: black; stroke-width: 3; }
.node-path { fill: lightgreen; stroke: black; stroke-width: 2; }
.edge { stroke: gray; stroke-width: 1; }
.edge-path { stroke: red; stroke-width: 3; }
.text { font-family: Arial; font-size: 12px; text-anchor: middle; }
.weight-text { font-family: Arial; font-size: 10px; text-anchor: middle; fill: blue; }
.distance-text { font-family: Arial; font-size: 8px; text-anchor: middle; fill: red; font-weight: bold; }
</style>
<line x1="151" y1="175" x2="265" y2="184" class="edge"/>
<text x="208" y="179" class="weight-text">114</text>
<line x1="151" y1="175" x2="75" y2="217" class="edge"/>
<text x="113" y="196" class="weight-text">86</text>
<line x1="151" y1="175" x2="50" y2="50" class="edge"/>
<text x="100" y="112" class="weight-text">160</text>
<line x1="265" y1="184" x2="358" y2="160" class="edge"/>
<text x="311" y="172" class="weight-text">96</text>
<line x1="265" y1="184" x2="301" y2="289" class="edge"/>
<text x="283" y="236" class="weight-text">111</text>
<line x1="358" y1="160" x2="461" y2="93" class="edge"/>
<text x="409" y="126" class="weight-text">122</text>
<line x1="358" y1="160" x2="414" y2="198" class="edge"/>
<text x="386" y="179" class="weight-text">67</text>
<line x1="461" y1="93" x2="605" y2="158" class="edge"/>
<text x="533" y="125" class="weight-text">157</text>
<line x1="461" y1="93" x2="533" y2="284" class="edge"/>
<text x="497" y="188" class="weight-text">204</text>
<line x1="461" y1="93" x2="283" y2="476" class="edge"/>
<text x="372" y="284" class="weight-text">422</text>
<line x1="605" y1="158" x2="754" y2="140" class="edge"/>
<text x="679" y="149" class="weight-text">150</text>
<line x1="605" y1="158" x2="599" y2="288" class="edge"/>
<text x="602" y="223" class="weight-text">130</text>
<line x1="754" y1="140" x2="774" y2="241" class="edge"/>
<text x="764" y="190" class="weight-text">102</text>
<line x1="75" y1="217" x2="301" y2="289" class="edge"/>
<text x="188" y="253" class="weight-text">237</text>
<line x1="75" y1="217" x2="70" y2="363" class="edge"/>
<text x="72" y="290" class="weight-text">146</text>
<line x1="301" y1="289" x2="414" y2="198" class="edge"/>
<text x="357" y="243" class="weight-text">145</text>
<line x1="301" y1="289" x2="229" y2="308" class="edge"/>
<text x="265" y="298" class="weight-text">74</text>
<line x1="301" y1="289" x2="774" y2="241" class="edge"/>
<text x="537" y="265" class="weight-text">475</text>
<line x1="414" y1="198" x2="533" y2="284" class="edge"/>
<text x="473" y="241" class="weight-text">146</text>
<line x1="414" y1="198" x2="418" y2="367" class="edge"/>
<text x="416" y="282" class="weight-text">169</text>
<line x1="533" y1="284" x2="599" y2="288" class="edge"/>
<text x="566" y="286" class="weight-text">66</text>
<line x1="533" y1="284" x2="510" y2="337" class="edge"/>
<text x="521" y="310" class="weight-text">57</text>
<line x1="599" y1="288" x2="774" y2="241" class="edge"/>
<text x="686" y="264" class="weight-text">181</text>
<line x1="599" y1="288" x2="620" y2="395" class="edge"/>
<text x="609" y="341" class="weight-text">109</text>
<line x1="774" y1="241" x2="740" y2="348" class="edge"/>
<text x="757" y="294" class="weight-text">112</text>
<line x1="70" y1="363" x2="229" y2="308" class="edge"/>
<text x="149" y="335" class="weight-text">168</text>
<line x1="70" y1="363" x2="150" y2="448" class="edge"/>
<text x="110" y="405" class="weight-text">116</text>
<line x1="229" y1="308" x2="418" y2="367" class="edge"/>
<text x="323" y="337" class="weight-text">197</text>
<line x1="229" y1="308" x2="283" y2="476" class="edge"/>
<text x="256" y="392" class="weight-text">176</text>
<line x1="418" y1="367" x2="510" y2="337" class="edge"/>
<text x="464" y="352" class="weight-text">96</text>
<line x1="418" y1="367" x2="310" y2="503" class="edge"/>
<text x="364" y="435" class="weight-text">173</text>
<line x1="510" y1="337" x2="620" y2="395" class="edge"/>
<text x="565" y="366" class="weight-text">124</text>
<line x1="510" y1="337" x2="431" y2="462" class="edge"/>
<text x="470" y="399" class="weight-text">147</text>
<line x1="620" y1="395" x2="740" y2="348" class="edge"/>
<text x="680" y="371" class="weight-text">128</text>
<line x1="620" y1="395" x2="559" y2="534" class="edge"/>
<text x="589" y="464" class="weight-text">151</text>
<line x1="740" y1="348" x2="695" y2="511" class="edge"/>
<text x="717" y="429" class="weight-text">169</text>
<line x1="150" y1="448" x2="283" y2="476" class="edge"/>
<text x="216" y="462" class="weight-text">135</text>
<line x1="283" y1="476" x2="310" y2="503" class="edge"/>
<text x="296" y="489" class="weight-text">38</text>
<line x1="310" y1="503" x2="431" y2="462" class="edge"/>
<text x="370" y="482" class="weight-text">127</text>
<line x1="431" y1="462" x2="559" y2="534" class="edge"/>
<text x="495" y="498" class="weight-text">146</text>
<line x1="559" y1="534" x2="695" y2="511" class="edge"/>
<text x="627" y="522" class="weight-text">137</text>
<line x1="695" y1="511" x2="50" y2="50" class="edge"/>
<text x="372" y="280" class="weight-text">792</text>
<circle cx="151" cy="175" r="15" class="node-current"/>
<text x="151" y="179" class="text">0</text>
<circle cx="265" cy="184" r="15" class="node-unvisited"/>
<text x="265" y="188" class="text">1</text>
<circle cx="358" cy="160" r="15" class="node-unvisited"/>
<text x="358" y="164" class="text">2</text>
<circle cx="461" cy="93" r="15" class="node-unvisited"/>
<text x="461" y="97" class="text">3</text>
<circle cx="605" cy="158" r="15" class="node-unvisited"/>
<text x="605" y="162" class="text">4</text>
<circle cx="754" cy="140" r="15" class="node-unvisited"/>
<text x="754" y="144" class="text">5</text>
<circle cx="75" cy="217" r="15" class="node-unvisited"/>
<text x="75" y="221" class="text">6</text>
<circle cx="301" cy="289" r="15" class="node-unvisited"/>
<text x="301" y="293" class="text">7</text>
<circle cx="414" cy="198" r="15" class="node-unvisited"/>
<text x="414" y="202" class="text">8</text>
<circle cx="533" cy="284" r="15" class="node-unvisited"/>
<text x="533" y="288" class="text">9</text>
<circle cx="599" cy="288" r="15" class="node-unvisited"/>
<text x="599" y="292" class="text">10</text>
<circle cx="774" cy="241" r="15" class="node-unvisited"/>
<text x="774" y="245" class="text">11</text>
<circle cx="70" cy="363" r="15" class="node-unvisited"/>
<text x="70" y="367" class="text">12</text>
<circle cx="229" cy="308" r="15" class="node-unvisited"/>
<text x="229" y="312" class="text">13</text>
<circle cx="418" cy="367" r="15" class="node-unvisited"/>
<text x="418" y="371" class="text">14</text>
<circle cx="510" cy="337" r="15" class="node-unvisited"/>
<text x="510" y="341" class="text">15</text>
<circle cx="620" cy="395" r="15" class="node-unvisited"/>
<text x="620" y="399" class="text">16</text>
<circle cx="740" cy="348" r="15" class="node-unvisited"/>
<text x="740" y="352" class="text">17</text>
<circle cx="150" cy="448" r="15" class="node-unvisited"/>
<text x="150" y="452" class="text">18</text>
<circle cx="283" cy="476" r="15" class="node-unvisited"/>
<text x="283" y="480" class="text">19</text>
<circle cx="310" cy="503" r="15" class="node-unvisited"/>
<text x="310" y="507" class="text">20</text>
<circle cx="431" cy="462" r="15" class="node-unvisited"/>
<text x="431" y="466" class="text">21</text>
<circle cx="559" cy="534" r="15" class="node-unvisited"/>
<text x="559" y="538" class="text">22</text>
<circle cx="695" cy="511" r="15" class="node-unvisited"/>
<text x="695" y="515" class="text">23</text>
<circle cx="50" cy="50" r="15" class="node-unvisited"/>
<text x="50" y="54" class="text">24</text>
</svg>
