<?xml version="1.0" encoding="UTF-8"?>
<svg width="1072" height="766" xmlns="http://www.w3.org/2000/svg">
<style>
.node-unvisited { fill: white; stroke: black; stroke-width: 2; }
.node-visited { fill: lightblue; stroke: black; stroke-width: 2; }
.node-current { fill: yellow; stroke: black; stroke-width: 3; }
.node-path { fill: lightgreen; stroke: black; stroke-width: 2; }
.edge { stroke: gray; stroke-width: 1; }
.edge-path { stroke: red; stroke-width: 3; }
.text { font-family: Arial; font-size: 12px; text-anchor: middle; }
.weight-text { font-family: Arial; font-size: 10px; text-anchor: middle; fill: blue; }
</style>
<line x1="91" y1="113" x2="215" y2="108" class="edge"/>
<text x="153" y="110" class="weight-text">124</text>
<line x1="91" y1="113" x2="58" y2="189" class="edge"/>
<text x="74" y="151" class="weight-text">82</text>
<line x1="91" y1="113" x2="836" y2="457" class="edge"/>
<text x="463" y="285" class="weight-text">820</text>
<line x1="215" y1="108" x2="275" y2="97" class="edge"/>
<text x="245" y="102" class="weight-text">61</text>
<line x1="215" y1="108" x2="234" y2="191" class="edge"/>
<text x="224" y="149" class="weight-text">85</text>
<line x1="275" y1="97" x2="436" y2="136" class="edge"/>
<text x="355" y="116" class="weight-text">165</text>
<line x1="275" y1="97" x2="337" y2="199" class="edge"/>
<text x="306" y="148" class="weight-text">119</text>
<line x1="436" y1="136" x2="501" y2="50" class="edge"/>
<text x="468" y="93" class="weight-text">107</text>
<line x1="436" y1="136" x2="381" y2="273" class="edge"/>
<text x="408" y="204" class="weight-text">147</text>
<line x1="501" y1="50" x2="694" y2="55" class="edge"/>
<text x="597" y="52" class="weight-text">193</text>
<line x1="501" y1="50" x2="500" y2="223" class="edge"/>
<text x="500" y="136" class="weight-text">173</text>
<line x1="694" y1="55" x2="728" y2="146" class="edge"/>
<text x="711" y="100" class="weight-text">97</text>
<line x1="694" y1="55" x2="644" y2="240" class="edge"/>
<text x="669" y="147" class="weight-text">191</text>
<line x1="728" y1="146" x2="874" y2="148" class="edge"/>
<text x="801" y="147" class="weight-text">146</text>
<line x1="728" y1="146" x2="819" y2="260" class="edge"/>
<text x="773" y="203" class="weight-text">145</text>
<line x1="728" y1="146" x2="271" y2="364" class="edge"/>
<text x="499" y="255" class="weight-text">506</text>
<line x1="874" y1="148" x2="1018" y2="105" class="edge"/>
<text x="946" y="126" class="weight-text">150</text>
<line x1="874" y1="148" x2="941" y2="244" class="edge"/>
<text x="907" y="196" class="weight-text">117</text>
<line x1="874" y1="148" x2="525" y2="661" class="edge"/>
<text x="699" y="404" class="weight-text">620</text>
<line x1="1018" y1="105" x2="975" y2="188" class="edge"/>
<text x="996" y="146" class="weight-text">93</text>
<line x1="58" y1="189" x2="234" y2="191" class="edge"/>
<text x="146" y="190" class="weight-text">176</text>
<line x1="58" y1="189" x2="50" y2="375" class="edge"/>
<text x="54" y="282" class="weight-text">186</text>
<line x1="234" y1="191" x2="337" y2="199" class="edge"/>
<text x="285" y="195" class="weight-text">103</text>
<line x1="234" y1="191" x2="127" y2="371" class="edge"/>
<text x="180" y="281" class="weight-text">209</text>
<line x1="337" y1="199" x2="381" y2="273" class="edge"/>
<text x="359" y="236" class="weight-text">86</text>
<line x1="337" y1="199" x2="271" y2="364" class="edge"/>
<text x="304" y="281" class="weight-text">177</text>
<line x1="337" y1="199" x2="832" y2="568" class="edge"/>
<text x="584" y="383" class="weight-text">617</text>
<line x1="381" y1="273" x2="500" y2="223" class="edge"/>
<text x="440" y="248" class="weight-text">129</text>
<line x1="381" y1="273" x2="446" y2="392" class="edge"/>
<text x="413" y="332" class="weight-text">135</text>
<line x1="500" y1="223" x2="644" y2="240" class="edge"/>
<text x="572" y="231" class="weight-text">145</text>
<line x1="500" y1="223" x2="567" y2="282" class="edge"/>
<text x="533" y="252" class="weight-text">89</text>
<line x1="644" y1="240" x2="819" y2="260" class="edge"/>
<text x="731" y="250" class="weight-text">176</text>
<line x1="644" y1="240" x2="647" y2="318" class="edge"/>
<text x="645" y="279" class="weight-text">78</text>
<line x1="819" y1="260" x2="941" y2="244" class="edge"/>
<text x="880" y="252" class="weight-text">123</text>
<line x1="819" y1="260" x2="785" y2="308" class="edge"/>
<text x="802" y="284" class="weight-text">58</text>
<line x1="941" y1="244" x2="975" y2="188" class="edge"/>
<text x="958" y="216" class="weight-text">65</text>
<line x1="941" y1="244" x2="932" y2="351" class="edge"/>
<text x="936" y="297" class="weight-text">107</text>
<line x1="975" y1="188" x2="1006" y2="379" class="edge"/>
<text x="990" y="283" class="weight-text">193</text>
<line x1="50" y1="375" x2="127" y2="371" class="edge"/>
<text x="88" y="373" class="weight-text">77</text>
<line x1="50" y1="375" x2="67" y2="437" class="edge"/>
<text x="58" y="406" class="weight-text">64</text>
<line x1="127" y1="371" x2="271" y2="364" class="edge"/>
<text x="199" y="367" class="weight-text">144</text>
<line x1="127" y1="371" x2="224" y2="437" class="edge"/>
<text x="175" y="404" class="weight-text">117</text>
<line x1="271" y1="364" x2="446" y2="392" class="edge"/>
<text x="358" y="378" class="weight-text">177</text>
<line x1="271" y1="364" x2="338" y2="500" class="edge"/>
<text x="304" y="432" class="weight-text">151</text>
<line x1="446" y1="392" x2="567" y2="282" class="edge"/>
<text x="506" y="337" class="weight-text">163</text>
<line x1="446" y1="392" x2="383" y2="408" class="edge"/>
<text x="414" y="400" class="weight-text">65</text>
<line x1="567" y1="282" x2="647" y2="318" class="edge"/>
<text x="607" y="300" class="weight-text">87</text>
<line x1="567" y1="282" x2="556" y2="450" class="edge"/>
<text x="561" y="366" class="weight-text">168</text>
<line x1="647" y1="318" x2="785" y2="308" class="edge"/>
<text x="716" y="313" class="weight-text">138</text>
<line x1="647" y1="318" x2="683" y2="458" class="edge"/>
<text x="665" y="388" class="weight-text">144</text>
<line x1="647" y1="318" x2="180" y2="578" class="edge"/>
<text x="413" y="448" class="weight-text">534</text>
<line x1="785" y1="308" x2="932" y2="351" class="edge"/>
<text x="858" y="329" class="weight-text">153</text>
<line x1="785" y1="308" x2="836" y2="457" class="edge"/>
<text x="810" y="382" class="weight-text">157</text>
<line x1="932" y1="351" x2="1006" y2="379" class="edge"/>
<text x="969" y="365" class="weight-text">79</text>
<line x1="932" y1="351" x2="943" y2="459" class="edge"/>
<text x="937" y="405" class="weight-text">108</text>
<line x1="1006" y1="379" x2="1001" y2="471" class="edge"/>
<text x="1003" y="425" class="weight-text">92</text>
<line x1="67" y1="437" x2="224" y2="437" class="edge"/>
<text x="145" y="437" class="weight-text">157</text>
<line x1="67" y1="437" x2="110" y2="573" class="edge"/>
<text x="88" y="505" class="weight-text">142</text>
<line x1="224" y1="437" x2="338" y2="500" class="edge"/>
<text x="281" y="468" class="weight-text">130</text>
<line x1="224" y1="437" x2="180" y2="578" class="edge"/>
<text x="202" y="507" class="weight-text">147</text>
<line x1="338" y1="500" x2="383" y2="408" class="edge"/>
<text x="360" y="454" class="weight-text">102</text>
<line x1="338" y1="500" x2="336" y2="594" class="edge"/>
<text x="337" y="547" class="weight-text">94</text>
<line x1="383" y1="408" x2="556" y2="450" class="edge"/>
<text x="469" y="429" class="weight-text">178</text>
<line x1="383" y1="408" x2="399" y2="578" class="edge"/>
<text x="391" y="493" class="weight-text">170</text>
<line x1="556" y1="450" x2="683" y2="458" class="edge"/>
<text x="619" y="454" class="weight-text">127</text>
<line x1="556" y1="450" x2="519" y2="567" class="edge"/>
<text x="537" y="508" class="weight-text">122</text>
<line x1="683" y1="458" x2="836" y2="457" class="edge"/>
<text x="759" y="457" class="weight-text">153</text>
<line x1="683" y1="458" x2="638" y2="635" class="edge"/>
<text x="660" y="546" class="weight-text">182</text>
<line x1="836" y1="457" x2="943" y2="459" class="edge"/>
<text x="889" y="458" class="weight-text">107</text>
<line x1="836" y1="457" x2="832" y2="568" class="edge"/>
<text x="834" y="512" class="weight-text">111</text>
<line x1="943" y1="459" x2="1001" y2="471" class="edge"/>
<text x="972" y="465" class="weight-text">59</text>
<line x1="943" y1="459" x2="913" y2="520" class="edge"/>
<text x="928" y="489" class="weight-text">67</text>
<line x1="1001" y1="471" x2="1052" y2="517" class="edge"/>
<text x="1026" y="494" class="weight-text">68</text>
<line x1="110" y1="573" x2="180" y2="578" class="edge"/>
<text x="145" y="575" class="weight-text">70</text>
<line x1="110" y1="573" x2="74" y2="653" class="edge"/>
<text x="92" y="613" class="weight-text">87</text>
<line x1="180" y1="578" x2="336" y2="594" class="edge"/>
<text x="258" y="586" class="weight-text">156</text>
<line x1="180" y1="578" x2="183" y2="746" class="edge"/>
<text x="181" y="662" class="weight-text">168</text>
<line x1="180" y1="578" x2="913" y2="520" class="edge"/>
<text x="546" y="549" class="weight-text">735</text>
<line x1="336" y1="594" x2="399" y2="578" class="edge"/>
<text x="367" y="586" class="weight-text">65</text>
<line x1="336" y1="594" x2="324" y2="639" class="edge"/>
<text x="330" y="616" class="weight-text">46</text>
<line x1="399" y1="578" x2="519" y2="567" class="edge"/>
<text x="459" y="572" class="weight-text">120</text>
<line x1="399" y1="578" x2="396" y2="685" class="edge"/>
<text x="397" y="631" class="weight-text">107</text>
<line x1="519" y1="567" x2="638" y2="635" class="edge"/>
<text x="578" y="601" class="weight-text">137</text>
<line x1="519" y1="567" x2="525" y2="661" class="edge"/>
<text x="522" y="614" class="weight-text">94</text>
<line x1="638" y1="635" x2="832" y2="568" class="edge"/>
<text x="735" y="601" class="weight-text">205</text>
<line x1="638" y1="635" x2="686" y2="732" class="edge"/>
<text x="662" y="683" class="weight-text">108</text>
<line x1="832" y1="568" x2="913" y2="520" class="edge"/>
<text x="872" y="544" class="weight-text">94</text>
<line x1="832" y1="568" x2="813" y2="746" class="edge"/>
<text x="822" y="657" class="weight-text">179</text>
<line x1="913" y1="520" x2="1052" y2="517" class="edge"/>
<text x="982" y="518" class="weight-text">139</text>
<line x1="913" y1="520" x2="945" y2="725" class="edge"/>
<text x="929" y="622" class="weight-text">207</text>
<line x1="1052" y1="517" x2="1015" y2="678" class="edge"/>
<text x="1033" y="597" class="weight-text">165</text>
<line x1="74" y1="653" x2="183" y2="746" class="edge"/>
<text x="128" y="699" class="weight-text">143</text>
<line x1="183" y1="746" x2="324" y2="639" class="edge"/>
<text x="253" y="692" class="weight-text">177</text>
<line x1="324" y1="639" x2="396" y2="685" class="edge"/>
<text x="360" y="662" class="weight-text">85</text>
<line x1="396" y1="685" x2="525" y2="661" class="edge"/>
<text x="460" y="673" class="weight-text">131</text>
<line x1="525" y1="661" x2="686" y2="732" class="edge"/>
<text x="605" y="696" class="weight-text">175</text>
<line x1="686" y1="732" x2="813" y2="746" class="edge"/>
<text x="749" y="739" class="weight-text">127</text>
<line x1="813" y1="746" x2="945" y2="725" class="edge"/>
<text x="879" y="735" class="weight-text">133</text>
<line x1="945" y1="725" x2="1015" y2="678" class="edge"/>
<text x="980" y="701" class="weight-text">84</text>
<circle cx="91" cy="113" r="15" class="node-unvisited"/>
<text x="91" y="117" class="text">0</text>
<circle cx="215" cy="108" r="15" class="node-unvisited"/>
<text x="215" y="112" class="text">1</text>
<circle cx="275" cy="97" r="15" class="node-unvisited"/>
<text x="275" y="101" class="text">2</text>
<circle cx="436" cy="136" r="15" class="node-unvisited"/>
<text x="436" y="140" class="text">3</text>
<circle cx="501" cy="50" r="15" class="node-unvisited"/>
<text x="501" y="54" class="text">4</text>
<circle cx="694" cy="55" r="15" class="node-unvisited"/>
<text x="694" y="59" class="text">5</text>
<circle cx="728" cy="146" r="15" class="node-unvisited"/>
<text x="728" y="150" class="text">6</text>
<circle cx="874" cy="148" r="15" class="node-unvisited"/>
<text x="874" y="152" class="text">7</text>
<circle cx="1018" cy="105" r="15" class="node-unvisited"/>
<text x="1018" y="109" class="text">8</text>
<circle cx="58" cy="189" r="15" class="node-unvisited"/>
<text x="58" y="193" class="text">9</text>
<circle cx="234" cy="191" r="15" class="node-unvisited"/>
<text x="234" y="195" class="text">10</text>
<circle cx="337" cy="199" r="15" class="node-unvisited"/>
<text x="337" y="203" class="text">11</text>
<circle cx="381" cy="273" r="15" class="node-unvisited"/>
<text x="381" y="277" class="text">12</text>
<circle cx="500" cy="223" r="15" class="node-unvisited"/>
<text x="500" y="227" class="text">13</text>
<circle cx="644" cy="240" r="15" class="node-unvisited"/>
<text x="644" y="244" class="text">14</text>
<circle cx="819" cy="260" r="15" class="node-unvisited"/>
<text x="819" y="264" class="text">15</text>
<circle cx="941" cy="244" r="15" class="node-unvisited"/>
<text x="941" y="248" class="text">16</text>
<circle cx="975" cy="188" r="15" class="node-unvisited"/>
<text x="975" y="192" class="text">17</text>
<circle cx="50" cy="375" r="15" class="node-unvisited"/>
<text x="50" y="379" class="text">18</text>
<circle cx="127" cy="371" r="15" class="node-unvisited"/>
<text x="127" y="375" class="text">19</text>
<circle cx="271" cy="364" r="15" class="node-unvisited"/>
<text x="271" y="368" class="text">20</text>
<circle cx="446" cy="392" r="15" class="node-unvisited"/>
<text x="446" y="396" class="text">21</text>
<circle cx="567" cy="282" r="15" class="node-unvisited"/>
<text x="567" y="286" class="text">22</text>
<circle cx="647" cy="318" r="15" class="node-unvisited"/>
<text x="647" y="322" class="text">23</text>
<circle cx="785" cy="308" r="15" class="node-unvisited"/>
<text x="785" y="312" class="text">24</text>
<circle cx="932" cy="351" r="15" class="node-unvisited"/>
<text x="932" y="355" class="text">25</text>
<circle cx="1006" cy="379" r="15" class="node-unvisited"/>
<text x="1006" y="383" class="text">26</text>
<circle cx="67" cy="437" r="15" class="node-unvisited"/>
<text x="67" y="441" class="text">27</text>
<circle cx="224" cy="437" r="15" class="node-unvisited"/>
<text x="224" y="441" class="text">28</text>
<circle cx="338" cy="500" r="15" class="node-unvisited"/>
<text x="338" y="504" class="text">29</text>
<circle cx="383" cy="408" r="15" class="node-unvisited"/>
<text x="383" y="412" class="text">30</text>
<circle cx="556" cy="450" r="15" class="node-unvisited"/>
<text x="556" y="454" class="text">31</text>
<circle cx="683" cy="458" r="15" class="node-unvisited"/>
<text x="683" y="462" class="text">32</text>
<circle cx="836" cy="457" r="15" class="node-unvisited"/>
<text x="836" y="461" class="text">33</text>
<circle cx="943" cy="459" r="15" class="node-unvisited"/>
<text x="943" y="463" class="text">34</text>
<circle cx="1001" cy="471" r="15" class="node-unvisited"/>
<text x="1001" y="475" class="text">35</text>
<circle cx="110" cy="573" r="15" class="node-unvisited"/>
<text x="110" y="577" class="text">36</text>
<circle cx="180" cy="578" r="15" class="node-unvisited"/>
<text x="180" y="582" class="text">37</text>
<circle cx="336" cy="594" r="15" class="node-unvisited"/>
<text x="336" y="598" class="text">38</text>
<circle cx="399" cy="578" r="15" class="node-unvisited"/>
<text x="399" y="582" class="text">39</text>
<circle cx="519" cy="567" r="15" class="node-unvisited"/>
<text x="519" y="571" class="text">40</text>
<circle cx="638" cy="635" r="15" class="node-unvisited"/>
<text x="638" y="639" class="text">41</text>
<circle cx="832" cy="568" r="15" class="node-unvisited"/>
<text x="832" y="572" class="text">42</text>
<circle cx="913" cy="520" r="15" class="node-unvisited"/>
<text x="913" y="524" class="text">43</text>
<circle cx="1052" cy="517" r="15" class="node-unvisited"/>
<text x="1052" y="521" class="text">44</text>
<circle cx="74" cy="653" r="15" class="node-unvisited"/>
<text x="74" y="657" class="text">45</text>
<circle cx="183" cy="746" r="15" class="node-unvisited"/>
<text x="183" y="750" class="text">46</text>
<circle cx="324" cy="639" r="15" class="node-unvisited"/>
<text x="324" y="643" class="text">47</text>
<circle cx="396" cy="685" r="15" class="node-unvisited"/>
<text x="396" y="689" class="text">48</text>
<circle cx="525" cy="661" r="15" class="node-unvisited"/>
<text x="525" y="665" class="text">49</text>
<circle cx="686" cy="732" r="15" class="node-unvisited"/>
<text x="686" y="736" class="text">50</text>
<circle cx="813" cy="746" r="15" class="node-unvisited"/>
<text x="813" y="750" class="text">51</text>
<circle cx="945" cy="725" r="15" class="node-unvisited"/>
<text x="945" y="729" class="text">52</text>
<circle cx="1015" cy="678" r="15" class="node-unvisited"/>
<text x="1015" y="682" class="text">53</text>
</svg>
